<svg width="30px" height="30px" viewBox="0 0 30 30" xmlns="http://www.w3.org/2000/svg" style="display: none;">
  <symbol id="icon-quote">
    <desc>icon of a dollar symbol</desc>
    <path d="M21.51,23.8c-1.11,1.2-2.74,2.08-4.86,2.45V30h-3.6v-3.49c-2.46-0.11-4.85-0.77-6.25-1.58l1.1-4.3c1.54,0.85,3.71,1.62,6.1,1.62c2.1,0,3.53-0.81,3.53-2.28c0-1.4-1.18-2.28-3.9-3.2c-3.93-1.32-6.62-3.16-6.62-6.73c0-3.24,2.28-5.77,6.21-6.54V0h3.6v3.24c2.46,0.11,4.12,0.62,5.33,1.21L21.1,8.6c-0.96-0.4-2.65-1.25-5.29-1.25c-2.39,0-3.16,1.03-3.16,2.06c0,1.21,1.29,1.99,4.41,3.16c4.38,1.54,6.14,3.57,6.14,6.88C23.2,21.08,22.62,22.6,21.51,23.8"/>
  </symbol>
  <symbol id="icon-brochure">
    <desc>icon of a brochure</desc>
    <path d="M20,26.64V6.88L10,3.36v19.77L20,26.64z M30,0.86v25.16c0,0.41-0.21,0.68-0.62,0.78L20,30l-10-3.52l-8.91,3.44L0.86,30C0.29,30,0,29.71,0,29.14V3.98C0,3.57,0.21,3.3,0.62,3.2L10,0l10,3.52l8.91-3.44L29.14,0C29.71,0,30,0.29,30,0.86z"/>
 </symbol>
  <symbol id="icon-service">
    <desc>icon of a spanner</desc>
    <path d="M7.36,6.09c0.58-0.62,0.33-1.3-0.24-1.84s-3.17-3-3.17-3s4.73-2.16,8.09,1.01s1.65,7.55,1.65,7.55S27.23,22.8,28.55,23.87c1.32,1.07,1.67,2.03,1.32,2.77l-2.51,2.66c-0.73,0.39-1.7,0.09-2.84-1.16C23.37,26.88,9.64,14.11,9.64,14.11S5.36,16.08,2,12.9S0.53,4.88,0.53,4.88s2.6,2.46,3.17,3s1.27,0.75,1.85,0.13L7.36,6.09z M25.08,24.83c-0.56,0.59-0.53,1.52,0.06,2.08c0.59,0.56,1.52,0.53,2.08-0.06s0.53-1.52-0.06-2.08C26.57,24.22,25.63,24.24,25.08,24.83z"/>
 </symbol>
  <symbol id="icon-specials">
    <desc>icon of a specials tag</desc>
    <path d="M8.12,8.14c0.5-0.5,0.75-1.11,0.75-1.8S8.61,5.05,8.12,4.55C7.62,4.06,7.03,3.8,6.34,3.8s-1.31,0.26-1.8,0.75S3.8,5.64,3.8,6.34s0.24,1.31,0.73,1.8s1.11,0.73,1.8,0.73S7.62,8.63,8.12,8.14L8.12,8.14z M30,17.74c0,0.69-0.24,1.29-0.73,1.78l-9.72,9.74c-0.51,0.5-1.11,0.73-1.8,0.73s-1.29-0.24-1.78-0.73L1.8,15.09c-0.5-0.5-0.93-1.15-1.29-2C0.18,12.24,0,11.47,0,10.77V2.53c0-0.69,0.26-1.29,0.75-1.78C1.25,0.26,1.84,0,2.53,0h8.24c0.69,0,1.47,0.18,2.32,0.53c0.85,0.34,1.52,0.77,2.02,1.27l14.16,14.14C29.76,16.46,30,17.05,30,17.74z"/>
 </symbol>
  <symbol id="icon-test-drive">
    <desc>icon of a steering wheel</desc>
    <path d="M25.61,4.39C22.68,1.47,19.16,0,15,0C10.84,0,7.32,1.47,4.39,4.39C1.47,7.32,0,10.84,0,15c0,4.16,1.47,7.68,4.39,10.61C7.32,28.54,10.84,30,15,30c4.16,0,7.68-1.46,10.61-4.39S30,19.16,30,15C30,10.84,28.54,7.32,25.61,4.39L25.61,4.39z M26.84,15c0,1.99-0.47,3.87-1.35,5.57l-5.98-3.87c0.18-0.53,0.29-1.11,0.29-1.7c0-2.29-1.58-4.16-3.75-4.69V3.16c3.05,0.29,5.62,1.52,7.68,3.81C25.78,9.26,26.84,11.89,26.84,15L26.84,15z M13.95,3.16v7.15c-2.17,0.53-3.75,2.4-3.75,4.69c0,0.59,0.12,1.17,0.29,1.7l-5.98,3.87c-0.94-1.7-1.41-3.57-1.41-5.57c0-3.11,1.05-5.74,3.11-8.03C8.32,4.69,10.9,3.46,13.95,3.16L13.95,3.16z M5.68,22.38l5.98-3.93c1.87,1.82,4.8,1.82,6.68,0l5.98,3.93C20.04,28.3,9.84,28.3,5.68,22.38z"/>
</svg>
 </symbol>
  <symbol id="icon-search-stock">
    <desc>icon of a magnifying glass</desc>
    <path d="M30,27.7c0,0.63-0.23,1.2-0.67,1.63c-0.5,0.43-1,0.67-1.63,0.67c-0.67,0-1.2-0.23-1.63-0.67l-6.17-6.17c-2.17,1.47-4.57,2.23-7.2,2.23c-1.73,0-3.37-0.33-4.93-1c-1.57-0.67-2.9-1.6-4.07-2.7c-1.1-1.17-2.03-2.5-2.7-4.07c-0.67-1.57-1-3.2-1-4.93C0,11,0.33,9.37,1,7.77C1.67,6.2,2.6,4.83,3.7,3.73C4.87,2.57,6.2,1.67,7.77,1c1.57-0.67,3.2-1,4.93-1s3.37,0.33,4.93,1s2.9,1.57,4.07,2.73c1.1,1.1,2.03,2.47,2.7,4.03c0.67,1.6,1,3.23,1,4.93c0,2.67-0.77,5.07-2.23,7.2l6.17,6.2C29.77,26.53,30,27.07,30,27.7L30,27.7z M18.4,18.4c1.6-1.57,2.37-3.47,2.37-5.7S20,8.6,18.4,7c-1.57-1.6-3.47-2.37-5.7-2.37S8.57,5.4,7,7c-1.6,1.6-2.37,3.47-2.37,5.7S5.4,16.83,7,18.4c1.57,1.6,3.47,2.4,5.7,2.4S16.83,20,18.4,18.4z"/>
 </symbol>
</svg>